<svg id="Layer_42" data-name="Layer 42" xmlns="http://www.w3.org/2000/svg" viewBox="0 0 418.48 418.48"><defs><style>.cls-1{fill:#231f20;}</style></defs><path class="cls-1" d="M209.24,0C93.68,0,0,93.68,0,209.24S93.68,418.48,209.24,418.48,418.48,324.8,418.48,209.24,324.8,0,209.24,0Zm142,291.41C346.35,249,328,226.33,328,226.33c9.24,33.09,8,65.31,2.93,92.59a165.1,165.1,0,0,1-37,30.32c8.08-32,7-66.24,7-66.24,1.52,10.3,7.69,32.42,13.94,39.21-5.72-48.16,15.74-63,.6-127.73,12,6.33,26.69,7.76,38.14.46-10.91,1.12-18.44-5.72-26.62-13-17.09-15.26-25.59-32.24-43-38.19,11.9-.9,19.31-2.94,22.38-9.75-18.23,2.81-36.1.49-52.4-8.14-8.16-4.32-19.06-8.53-29.32-10.11a111.13,111.13,0,0,0-24.94,0,103.26,103.26,0,0,0,14.71-3.45c9.32-18.77,14.2-41.25,13.11-62-3.27,10.93-6.6,23.58-12.39,33.89S200,107,189.91,110.55A92.71,92.71,0,0,0,191,74.84c-2.16,12.89-8,26.86-20.73,34.68a61.55,61.55,0,0,1,13.37,2.63,73.6,73.6,0,0,0-17-.64.31.31,0,0,0-.1,0c-.48,0-.95,0-1.42.09a23.05,23.05,0,0,0-3.14.45c-11,3.39-13.93,5.54-16,9.77-2.72,5.46-12,12.62-21.15,16.34a33.41,33.41,0,0,0,14-.73c-4.57,3-21.82,3.87-21.82,3.87a4.71,4.71,0,0,1-4.28-2.34c0-.08-.07-.17-.11-.25-.41-1.12-2-1.79-2.77-.87-6.48,7.84-15.15,13.94-29.89,19.08C86,170,95.93,185,106.75,190.41c-.93-7.43-4.43-15.8-2.78-22.31h0c1.76,3.11,6.73,10.9,12.74,12.06,0,0-3.83-8.18-1.51-12.72,26.18-1,44.2,1.89,69.22-12.35,1.79,14.59-10.84,29.76-20.49,34.78,0,0,9.21-6.84,9.8-12.54-9.77,1.31-23.26,2-32.36,14.14-8.12,10.83-11.14,11.85-16.08,12l-.57,0c-4.46-1.9-7.77-9-7.77-9-2.64,4.78-.7,12.3.65,16.25a17.87,17.87,0,0,0,1,2.63h0c3.82,8.12,12.88,11.52,21.14,18.3-2.14-11.38,7.65-21.49,18.23-26.21a97.37,97.37,0,0,1,33.57-8.69c8.2-.5,17.42-2.37,23.8-7.77a25.39,25.39,0,0,0,6.54-9.73c0-.14.11-.27.15-.41h0a30.31,30.31,0,0,0,1.49-14.22s3.39,9.65,2,18.34c15.64,19.41,15.3,32.77,15.41,46.78-2.07-12.37-5.86-18.92-11.08-21.09,0,0,.25,34.95-19.84,58.06,1.91-3.2-4.4-17.06-4.4-17.06-8,48.57-77.19,99.93-78.41,101.12a164,164,0,0,1-15.49-10.11c75.88-40.73,87.09-99.47,87.09-99.47-27.73,40.92-74.14,65-110.65,78.39a164.75,164.75,0,1,1,263.13-28.21ZM167.5,119c-3.57,6.47-7.8,12.15-21.59,14.72,1.08-4,5.32-6.79,9.6-8.42C160.21,123.44,163.53,123,167.5,119Zm-50,34.7c-1,1.58-1-.93-5.07-.65-1.41.1-2.71,1.18-3.8,1.95a.67.67,0,0,1-1-.83,12.85,12.85,0,0,1,2.3-3.57c1.76-1.82,4.66-2.81,6.88-1.05A3.12,3.12,0,0,1,117.53,153.65Z" transform="translate(0)"/></svg>